<?xml version="1.0" encoding="UTF-8"?>
<svg id="Layer_2" data-name="Layer 2" xmlns="http://www.w3.org/2000/svg" viewBox="0 0 78.4134 163.6809">
  <defs>
    <style>
      .cls-1 {
        fill: #f96202;
        fill-rule: evenodd;
        stroke-width: 0px;
      }
    </style>
  </defs>
  <g id="Elements">
    <path class="cls-1" d="m30.8749.3725c-4.8476,1.2388-10.404,19.4359-13.6944,24.4823-4.133,8.1769-7.479,16.5196-11.229,24.7506C4.1384,55.4212-.0818,60.2098.0012,66.285c1.7609,4.2242,8.5951,3.9822,12.6001,4.7083,4.5555.4162,5.5351-8.4751,7.5926-11.6459,1.0129-1.2973,3.4744-11.2326,5.0459-9.8126,1.2137,1.5097.126,5.8473.0298,7.7569-.1199,34.5253-10.8666,68.2211-20.6143,101.141-1.4954,5.9318,3.6383,7.411,5.9552,1.4297,8.608-23.6413,15.7642-47.9281,19.7244-72.7992.6018-2.2187.2431-5.6826,2.6121-6.83.7648-.1029,1.443.6818,2.2418.4088,1.402.0869,7.9335-8.572,7.8296-5.8305.8961,3.1439-12.9107,12.344-8.3892,12.0756,2.5601-.6407,5.9007-2.8931,7.3056-4.973.412-.8222,1.7576-1.9024,1.7612-.2554.7707,1.9954-12.8319,13.8304-6.1765,11.09,1.971-1.0395,3.5516-3.223,5.0456-4.6796,2.6959.5815-5.5199,8.3147-5.7847,10.3242-.4616.7439-1.6305,3.0418.1407,1.5026,2.0601-2.0021,2.9302-4.8053,4.8352-6.9098,1.47-.4542-.1415,4.5764-.0321,5.506-.6922,7.9638-2.7237,15.5776-4.2521,23.5834-.938,4.6937-2.6371,9.0189-2.6864,13.9622,2.3286,6.5344,7.1721-1.1669,7.3806-4.6759,6.5174-25.0276,12.2419-50.6505,13.2589-76.5766-.6917-8.39,8.8889,9.8009,11.0371,10.5327,3.7415,3.23,9.9734-.0417,11.9509-3.9801.1088-6.3775-41.0666-66.2738-47.3878-61.0107l-.1505.0454Zm-5.2241,45.7547h-.6418v-1.6046h.3209v-.3209h.3209v1.9255Zm20.5387,13.4785v.3209h-.321v-.6419c.6407.1931.2763-.0445.6419.321h-.3209Zm.717-21.5299c.484.1467.7958.3189,1.1605.6601.3218.6489-.5041,1.157-.8249,1.6568-.1806.2264-.4112.4452-.6832.5714-.0503-.1584-.176-.2606-.324-.3253-.1135-.8109.2823-1.7834.5728-2.5308l.0988-.0322Zm-.3412,11.5504c.2016.0976.7184.1793.8828.3488.2031.4-.0929.8174-.4131,1.0749-.5037.5395-1.0443,1.2917-1.7554,1.4646-.0643-.1493-.1914-.2605-.3358-.3298-.0869-1.0621,1.0431-1.7214,1.537-2.5191l.0845-.0394Zm-6.2697,21.1117c-.1595.2292-.6234.4354-.8713.7653-.2583.3272-.2701.6823-.4873.9811-.2498.3462-.7556.5802-.9975.9548-.2306.3196-.3147.7283-.6183,1.0213-1.7604,1.5098-2.9356,3.4045-4.9896,4.7154-.3893.21-.5751-.0867-.5539-.4613.1905-1.4863.377-2.9968,1.4987-3.8283.7233-.4068.9774-1.1975,1.4517-1.7706.4844-.3783.9501-.5977,1.3921-1.0456.9079-.5057,1.5516-.9705,2.3814-1.5401.5672-.6843,2.341-1.6673,1.8625.0933l-.0685.1147Zm-5.9425-39.3977c.7217-.1582,1.426-.6273,2.1398-.8521.5909-.0983.3782.1936.2451.6183-.3765.823-1.257,1.1626-1.8128,1.8338-.2573.1218-.6138.0423-.9012.0013-.0782-.37.215-1.1354.2492-1.5293l.0799-.072Zm3.2454,5.1595c.0937-.0331.2843.0222.2525.2642-.0936,1.9278-1.892,2.8225-2.9367,4.1767-.2459.1149-.6103.0438-.8838-.024-.0931-.1864.0737-.608.1445-.8432.558-1.6383,2.4547-2.1456,3.3409-3.5233l.0826-.0504Zm-3.8862,13.4616c.1938-.3023.3104-.7164.4954-1.0176.1828-.2405.4961-.3777.7083-.6668.3519-.5612.6717-.8126,1.2601-.9964.4033-.4755.8421-.837,1.3666-1.2835.5086-.5462.4517-.9372,1.1226-1.284.2389-.0443.4953-.1816.675.0551.0902.185-.0129.3556-.0866.582-.0624.1925-.0572.4499-.163.604-1.2109,1.8685-2.968,3.2544-4.2905,5.0386-.9022.8348-1.4288.097-1.1475-.8826l.0596-.1488Zm.3625,9.3941c.3513-.216.7061-.7075.9914-1.0392.3667-.3264.8271-.3986,1.0789-.9197.3058-.7254.9383-.9889,1.3789-1.6017.5075-.856.9466-1.7642,1.7857-2.2982.1303-.0326.2899.1068.3721.3294.1695.5111.2306,1.5896-.2033,2.0462-.1599.1551-.3606.3278-.5372.4635-.3933.359-.4933.9119-.854,1.2764-.8884,2.1026-3.7153,3.139-4.4974,5.3426-.0817.1479-.2455.5119-.4051.4904-.1203-.0164-.1599-.4509-.0997-.8888.1048-.9482.3725-2.533.8963-3.1165l.0934-.0844Zm.8763,6.5867c.215-.3472.5553-.638,1.0509-.7637.5588-.1388.6913-.6355.9812-1.0366.4552-.4278,1.0283-.88,1.4267-1.4133,2.4636-3.3339,2.5578-.3209,1.0212,1.6385-.8762,1.0771-2.4127,1.7847-2.9318,3.1016-.186.5104-.8399.8537-1.2272,1.258-.3011.3492-.3634.7535-.6466,1.0422-.246.2555-.3236.5966-.5467.8842-1.4145,1.2646-1.499-.0942-1.2123-1.3814.2286-1.3953,1.0531-2.2171,1.9898-3.2019l.0948-.1276Z"/>
  </g>
</svg>