<?xml version="1.0" encoding="UTF-8"?>
<svg id="Layer_2" data-name="Layer 2" xmlns="http://www.w3.org/2000/svg" viewBox="0 0 110.8354 143.7423">
  <defs>
    <style>
      .cls-1 {
        fill: #cf4214;
        fill-rule: evenodd;
        stroke-width: 0px;
      }
    </style>
  </defs>
  <g id="Elements">
    <path class="cls-1" d="m.6296,22.6689c1.193,9.0008,2.5784,18.4192,4.2281,27.4211.8966,7.1988,1.7926,20.2256,12.0332,18.5719,8.0961-1.7085,5.507-15.0876,7.4809-21.3039,9.7336-.6092,29.9438,19.5348,36.9699,26.9409,13.9548,15.3694,23.6735,33.4916,30.1399,53.0742,2.5479,5.1647,1.7877,12.7337,7.0358,16.0737,7.1688,1.8477,6.7997-5.3934,5.099-9.9873-7.0571-33.0001-26.344-63.2808-52.7284-84.1765-6.5552-4.7202-27.3895-20.239-34.7395-15.2149-1.7913,1.2019-2.3674-1.2126-2.299-2.5927-1.2606-5.631-2.4876-8.1412,4.5125-9.0682,1.8883.1207,4.9646-1.78,5.8743.6106,2.2736,5.0893,9.2665,4.8302,13.8025,6.2946,6.1167,1.8562,12.0304,4.179,17.7433,7.0571,19.5592,10.1596,34.0271,28.0197,43.5665,47.5741,1.6055,2.5736,2.7675,6.9131,5.7923,8.3893,3.6763,1.28,6.6948-2.2964,5.3817-5.865-11.0892-30.6842-35.1854-57.7236-67.2927-66.4225-5.7421-1.8252,24.4754-10.375,15.9123-18.1871-4.5972-5.4852-27.5977,2.7944-34.8208,4.0743-6.0497,1.779-12.5282,3.3834-18.6455,5.0967C.1357,12.2839-.8488,17.7232.5992,22.508l.0304.1609Z"/>
  </g>
</svg>